<svg  viewBox="0 0 609 788" fill="none" xmlns="http://www.w3.org/2000/svg">
<g id="hand smartphone" clip-path="url(#clip0_342:402)">
<g id="hand">
<path id="Vector" d="M42.0214 204.09H38.4319C6.09077 204.09 -12.0886 242.271 9.16232 266.651C16.0021 274.497 26.3982 279.93 42.0214 280.209V204.09Z" fill="#CD853F"/>
<path id="Vector_2" d="M608.157 508.037L499.264 428.747C499.264 428.747 436.889 323.026 426.317 255.364C415.745 187.703 368.17 67.1811 368.17 67.1811V3.74855C368.17 3.74855 313.196 -17.3956 308.967 40.7509C304.738 98.8974 320.596 173.959 320.596 173.959C320.596 173.959 336.454 269.108 300.509 293.424L169.415 508.037C169.415 508.037 295.223 623.273 393.543 638.074L608.157 787.141V508.037Z" fill="#CD853F" fill-opacity="0.83"/>
<path id="Vector_3" d="M42.0214 280.209H38.4319C6.09077 280.209 -12.0886 318.391 9.16232 342.77C16.0021 350.616 26.3982 356.049 42.0214 356.328V280.209Z" fill="#CD853F"/>
<path id="Vector_4" d="M42.0214 356.328H38.4319C6.09077 356.328 -12.0886 394.51 9.16232 418.889C16.0021 426.735 26.3982 432.168 42.0214 432.447V356.328Z" fill="#CD853F"/>
<path id="Vector_5" d="M42.0214 442.447H38.4319C6.09077 442.447 -12.0886 481.13 9.16232 505.83C16.0021 513.78 26.3982 519.283 42.0214 519.566V442.447Z" fill="#CD853F"/>
<path id="Vector_6" d="M375.042 597.9C419.125 597.9 454.862 517.908 454.862 419.232C454.862 320.556 419.125 240.563 375.042 240.563C330.959 240.563 295.223 320.556 295.223 419.232C295.223 517.908 330.959 597.9 375.042 597.9Z" fill="#CD853F" fill-opacity="0.4"/>
</g>
<g id="smartphone">
<path id="Vector_7" d="M322.71 185.915H319.564V99.7222C319.564 93.1711 318.274 86.6841 315.767 80.6317C313.26 74.5792 309.585 69.0798 304.953 64.4475C300.32 59.8151 294.821 56.1406 288.769 53.6336C282.716 51.1266 276.229 49.8362 269.678 49.8362H87.0673C80.5162 49.8362 74.0292 51.1266 67.9767 53.6336C61.9243 56.1406 56.4248 59.8151 51.7925 64.4475C47.1601 69.0798 43.4856 74.5792 40.9785 80.6317C38.4715 86.6841 37.1812 93.1711 37.1812 99.7222V572.582C37.1812 579.133 38.4715 585.62 40.9785 591.672C43.4856 597.725 47.1601 603.224 51.7925 607.857C56.4248 612.489 61.9243 616.164 67.9767 618.671C74.0292 621.178 80.5162 622.468 87.0673 622.468H269.678C276.229 622.468 282.716 621.178 288.769 618.671C294.821 616.164 300.32 612.489 304.953 607.857C309.585 603.224 313.26 597.725 315.767 591.672C318.274 585.62 319.564 579.133 319.564 572.582V247.268H322.71V185.915Z" fill="#3F3D56"/>
<path id="Vector_8" d="M308.946 100.071V572.231C308.937 577.753 307.706 583.206 305.341 588.196C302.976 593.186 299.535 597.59 295.265 601.093C294.321 601.867 293.336 602.59 292.316 603.26C286.208 607.331 279.03 609.498 271.689 609.487H88.2003C85.2258 609.492 82.2617 609.138 79.3726 608.43C71.2641 606.453 64.0545 601.81 58.8996 595.246C53.7447 588.682 50.9432 580.577 50.9442 572.231V100.071C50.9451 90.1903 54.8706 80.7146 61.8573 73.7279C68.8439 66.7413 78.3196 62.8158 88.2003 62.8149H110.465C109.369 65.5021 108.95 68.4176 109.247 71.3047C109.543 74.1917 110.544 76.9616 112.163 79.3702C113.782 81.7789 115.969 83.7523 118.53 85.1167C121.092 86.4811 123.95 87.1945 126.852 87.1941H231.463C234.364 87.191 237.22 86.4754 239.78 85.1103C242.34 83.7452 244.525 81.7724 246.145 79.365C247.764 76.9577 248.767 74.1896 249.066 71.3039C249.365 68.4181 248.951 65.5031 247.86 62.8149H271.689C281.57 62.8158 291.046 66.7412 298.033 73.7279C305.019 80.7146 308.945 90.1903 308.946 100.071Z" fill="#6C63FF"/>
<path id="Vector_9" d="M141.439 418.623C141.439 418.623 159.45 468.655 145.441 496.673C131.432 524.691 167.455 556.712 167.455 556.712C167.455 556.712 261.516 508.681 249.508 484.665C237.501 460.65 217.488 428.629 221.49 408.616L141.439 418.623Z" fill="#FFB8B8"/>
<path id="Vector_10" d="M176.461 437.635C211.83 437.635 240.502 408.963 240.502 373.594C240.502 338.225 211.83 309.552 176.461 309.552C141.092 309.552 112.42 338.225 112.42 373.594C112.42 408.963 141.092 437.635 176.461 437.635Z" fill="#FFB8B8"/>
<path id="Vector_11" d="M300.974 598.314C299.291 600.463 297.376 602.42 295.265 604.15C294.321 604.924 293.336 605.647 292.316 606.317C286.406 610.25 279.323 611.487 271.689 611.487H109.619L112.421 533.698L130.436 493.672C134.48 496.844 138.808 499.636 143.365 502.013C144.444 502.595 145.586 503.176 146.78 503.747C163.653 511.898 191.236 519.066 217.973 499.106C226.388 492.826 234.719 483.85 242.616 471.375L292.538 499.677L295.16 530.336L300.974 598.314Z" fill="white"/>
<path id="Vector_12" d="M150.607 463.721L148.102 489.908L146.78 503.747L144.803 524.352L136.356 612.544H88.2003C85.2258 612.55 82.2617 612.195 79.3726 611.487L60.3851 523.686L60.9349 523.326L150.607 463.721Z" fill="#2F2E41"/>
<path id="Vector_13" d="M308.945 481.715V575.288C308.937 580.811 307.706 586.263 305.341 591.253C302.976 596.243 299.535 600.648 295.265 604.15C294.321 604.924 293.336 605.647 292.316 606.317C286.208 610.388 279.03 612.556 271.689 612.544H207.253C208.659 582.974 211.143 554.112 214.05 528.972C215.298 518.262 216.62 508.23 217.973 499.106C222.328 469.694 227.001 449.724 230.353 447.028L252.512 461.649L308.945 481.715Z" fill="#2F2E41"/>
<path id="Vector_14" d="M106.416 595.735L104.111 612.544H88.2003C85.2258 612.55 82.2617 612.195 79.3726 611.487C71.2641 609.51 64.0545 604.867 58.8996 598.303C53.7447 591.739 50.9432 583.634 50.9442 575.288V571.905L58.387 523.686L60.9349 523.326L72.395 521.688L106.416 595.735Z" fill="#2F2E41"/>
<path id="Vector_15" d="M308.945 493.915V575.288C308.937 580.811 307.706 586.263 305.341 591.253C302.976 596.243 299.535 600.648 295.265 604.15C294.321 604.924 293.336 605.647 292.316 606.317L282.526 563.712L295.16 530.336L308.945 493.915Z" fill="#2F2E41"/>
<path id="Vector_16" d="M237.531 315.672C227.847 299.946 212.689 288.357 194.973 283.137L181.961 293.546L187.02 281.405C182.766 280.756 178.46 280.507 174.16 280.662L162.453 295.714L167.298 281.177C147.069 283.756 127.837 294.775 116.18 311.584C101.28 333.069 98.7653 362.948 113.42 384.601C117.444 372.238 122.326 360.637 126.349 348.274C127.278 348.671 130.796 348.646 135.882 348.32L140.776 336.899L142.143 347.837C157.314 346.515 179.816 343.613 194.198 340.955L192.8 332.564L201.167 339.537C205.573 338.522 208.189 337.602 207.973 336.899C218.67 354.143 229.268 365.157 239.964 382.401C244.025 358.078 251.193 337.86 237.531 315.672Z" fill="#2F2E41"/>
<path id="Vector_17" d="M233.985 380.252C236.379 380.252 238.32 376.37 238.32 371.582C238.32 366.793 236.379 362.911 233.985 362.911C231.591 362.911 229.65 366.793 229.65 371.582C229.65 376.37 231.591 380.252 233.985 380.252Z" fill="#FFB8B8"/>
<path id="Vector_18" opacity="0.2" d="M87.9686 196.161C83.7867 196.161 79.6987 194.921 76.2215 192.597C72.7444 190.274 70.0343 186.972 68.4339 183.108C66.8336 179.244 66.4148 174.993 67.2307 170.891C68.0465 166.79 70.0603 163.022 73.0174 160.065C75.9745 157.108 79.742 155.094 83.8436 154.279C87.9451 153.463 92.1966 153.881 96.0602 155.482C99.9238 157.082 103.226 159.792 105.549 163.269C107.873 166.747 109.113 170.835 109.113 175.016C109.106 180.622 106.877 185.997 102.913 189.961C98.9488 193.924 93.5744 196.154 87.9686 196.161ZM87.9686 155.987C84.2049 155.987 80.5257 157.103 77.3962 159.194C74.2668 161.285 71.8277 164.257 70.3874 167.734C68.9471 171.211 68.5702 175.038 69.3045 178.729C70.0388 182.42 71.8512 185.811 74.5125 188.473C77.1739 191.134 80.5647 192.946 84.2561 193.681C87.9475 194.415 91.7737 194.038 95.251 192.598C98.7282 191.157 101.7 188.718 103.791 185.589C105.882 182.459 106.998 178.78 106.998 175.016C106.993 169.971 104.986 165.134 101.418 161.567C97.8509 157.999 93.0139 155.992 87.9686 155.987Z" fill="black"/>
<path id="Vector_19" opacity="0.2" d="M79.5109 172.902C81.2626 172.902 82.6826 171.482 82.6826 169.73C82.6826 167.979 81.2626 166.559 79.5109 166.559C77.7593 166.559 76.3393 167.979 76.3393 169.73C76.3393 171.482 77.7593 172.902 79.5109 172.902Z" fill="black"/>
<path id="Vector_20" opacity="0.2" d="M95.3691 172.902C97.1207 172.902 98.5407 171.482 98.5407 169.73C98.5407 167.979 97.1207 166.559 95.3691 166.559C93.6174 166.559 92.1974 167.979 92.1974 169.73C92.1974 171.482 93.6174 172.902 95.3691 172.902Z" fill="black"/>
<path id="Vector_21" opacity="0.2" d="M95.3691 182.417H79.511C79.2306 182.417 78.9616 182.306 78.7634 182.107C78.5651 181.909 78.4537 181.64 78.4537 181.36C78.4537 181.079 78.5651 180.81 78.7634 180.612C78.9616 180.414 79.2306 180.302 79.511 180.302H95.3691C95.6495 180.302 95.9184 180.414 96.1166 180.612C96.3149 180.81 96.4263 181.079 96.4263 181.36C96.4263 181.64 96.3149 181.909 96.1166 182.107C95.9184 182.306 95.6495 182.417 95.3691 182.417Z" fill="black"/>
<path id="Vector_22" opacity="0.2" d="M271.923 196.161C267.741 196.161 263.653 194.921 260.176 192.597C256.699 190.274 253.989 186.972 252.388 183.108C250.788 179.244 250.369 174.993 251.185 170.891C252.001 166.79 254.015 163.022 256.972 160.065C259.929 157.108 263.696 155.094 267.798 154.279C271.9 153.463 276.151 153.881 280.014 155.482C283.878 157.082 287.18 159.792 289.504 163.269C291.827 166.747 293.067 170.835 293.067 175.016C293.061 180.622 290.831 185.997 286.867 189.961C282.903 193.925 277.529 196.154 271.923 196.161ZM271.923 155.987C268.159 155.987 264.48 157.103 261.351 159.194C258.221 161.285 255.782 164.257 254.342 167.734C252.901 171.211 252.525 175.038 253.259 178.729C253.993 182.42 255.805 185.811 258.467 188.473C261.128 191.134 264.519 192.946 268.21 193.681C271.902 194.415 275.728 194.038 279.205 192.598C282.683 191.157 285.655 188.718 287.746 185.589C289.837 182.459 290.953 178.78 290.953 175.016C290.947 169.971 288.94 165.134 285.373 161.567C281.805 157.999 276.968 155.992 271.923 155.987Z" fill="black"/>
<path id="Vector_23" opacity="0.2" d="M263.465 172.902C265.217 172.902 266.637 171.482 266.637 169.73C266.637 167.979 265.217 166.559 263.465 166.559C261.714 166.559 260.294 167.979 260.294 169.73C260.294 171.482 261.714 172.902 263.465 172.902Z" fill="black"/>
<path id="Vector_24" opacity="0.2" d="M279.323 172.902C281.075 172.902 282.495 171.482 282.495 169.73C282.495 167.979 281.075 166.559 279.323 166.559C277.572 166.559 276.152 167.979 276.152 169.73C276.152 171.482 277.572 172.902 279.323 172.902Z" fill="black"/>
<path id="Vector_25" opacity="0.2" d="M279.322 184.531C279.138 184.531 278.956 184.483 278.796 184.39C276.582 182.987 274.015 182.242 271.394 182.242C268.773 182.242 266.206 182.987 263.993 184.39C263.873 184.46 263.74 184.505 263.602 184.523C263.464 184.542 263.324 184.533 263.19 184.497C263.055 184.461 262.929 184.398 262.819 184.314C262.709 184.229 262.616 184.123 262.547 184.003C262.478 183.882 262.433 183.749 262.415 183.611C262.397 183.474 262.406 183.334 262.443 183.199C262.479 183.065 262.541 182.939 262.626 182.829C262.711 182.719 262.817 182.627 262.938 182.558C265.475 180.975 268.405 180.137 271.394 180.137C274.384 180.137 277.314 180.975 279.851 182.558C280.053 182.674 280.211 182.854 280.3 183.069C280.39 183.284 280.405 183.523 280.345 183.748C280.285 183.973 280.152 184.172 279.967 184.313C279.782 184.455 279.555 184.532 279.322 184.531Z" fill="black"/>
<path id="forma do rosto" d="M181.003 217.946C172.512 217.946 164.213 215.428 157.153 210.711C150.093 205.994 144.591 199.289 141.342 191.445C138.093 183.6 137.242 174.969 138.899 166.641C140.555 158.314 144.644 150.665 150.648 144.661C156.651 138.657 164.301 134.569 172.628 132.912C180.955 131.256 189.587 132.106 197.431 135.355C205.276 138.604 211.98 144.107 216.697 151.166C221.414 158.226 223.932 166.526 223.932 175.016C223.919 186.398 219.392 197.31 211.344 205.357C203.296 213.405 192.385 217.932 181.003 217.946ZM181.003 136.38C173.362 136.38 165.892 138.646 159.538 142.892C153.184 147.137 148.232 153.171 145.308 160.231C142.384 167.291 141.618 175.059 143.109 182.554C144.6 190.049 148.28 196.933 153.683 202.336C159.086 207.74 165.971 211.419 173.465 212.91C180.96 214.401 188.729 213.636 195.788 210.712C202.848 207.787 208.882 202.835 213.128 196.482C217.373 190.128 219.639 182.658 219.639 175.016C219.628 164.773 215.553 154.952 208.31 147.709C201.067 140.466 191.246 136.392 181.003 136.38V136.38Z" fill="white"/>
<path id="eye left" d="M163.831 170.724C167.388 170.724 170.271 167.841 170.271 164.284C170.271 160.728 167.388 157.845 163.831 157.845C160.275 157.845 157.392 160.728 157.392 164.284C157.392 167.841 160.275 170.724 163.831 170.724Z" fill="white"/>
<path id="eye right" d="M196.028 170.724C199.585 170.724 202.468 167.841 202.468 164.284C202.468 160.728 199.585 157.845 196.028 157.845C192.472 157.845 189.589 160.728 189.589 164.284C189.589 167.841 192.472 170.724 196.028 170.724Z" fill="white"/>
<path id="smile" d="M181.026 195.975C175.252 195.975 169.131 193.882 162.664 189.696C162.187 189.386 161.853 188.899 161.735 188.343C161.616 187.787 161.724 187.206 162.033 186.729C162.342 186.252 162.829 185.917 163.385 185.798C163.941 185.679 164.521 185.786 164.999 186.095C176.376 193.47 186.069 193.523 194.641 186.258C195.075 185.891 195.637 185.711 196.204 185.758C196.771 185.805 197.296 186.075 197.663 186.509C198.031 186.943 198.212 187.505 198.165 188.072C198.119 188.639 197.849 189.164 197.416 189.532C192.352 193.827 186.873 195.975 181.026 195.975Z" fill="white"/>
<path id="seta da direita" d="M251.836 245.849H223.932V241.557H247.543V217.946H251.836V245.849Z" fill="white"/>
<path id="seta da esquerda" d="M114.463 132.087H110.17V104.183H138.074V108.476H114.463V132.087Z" fill="white"/>
</g>
</g>
<defs>
<clipPath id="clip0_342:402">
<rect width="608.157" height="787.141" fill="white"/>
</clipPath>
</defs>
</svg>
