<svg  viewBox="0 0 599 521" fill="none" xmlns="http://www.w3.org/2000/svg">
<g id="undraw_Developer_activity_re_39tg 1" clip-path="url(#clip0_344:660)">
<path id="pera" d="M540.082 271.137C540.16 335.605 515.206 397.593 470.465 444.07C467.768 446.89 464.998 449.642 462.155 452.326C457.824 456.44 453.347 460.395 448.725 464.19C405.485 499.764 351.505 519.755 295.492 520.937C293.626 520.979 291.752 521 289.872 521C245.201 521 189.015 497.173 138.027 464.19C133.808 461.462 129.627 458.67 125.484 455.814C123.547 454.492 121.62 453.151 119.702 451.792C100.036 437.925 81.3696 422.697 63.8398 406.22C52.3624 395.464 41.5995 383.971 31.6199 371.816C-7.55811 323.558 -16.1994 280.075 39.6555 271.137C46.2685 270.082 52.6866 268.954 58.91 267.754C67.9245 266.024 76.5517 264.156 84.7915 262.149C95.8906 259.456 106.318 256.535 116.075 253.386C119.357 252.331 122.563 251.255 125.695 250.158C171.993 233.92 202.98 212.745 224.073 189.769C227.651 185.88 230.949 181.944 233.968 177.961C238.587 171.899 242.782 165.526 246.525 158.888C251.69 149.666 256.029 140.005 259.49 130.019L259.68 129.471C276.463 81.1284 271.357 36.2882 289.872 21.2805C369.017 -42.8785 467.55 48.4898 513.799 156.237C516.13 161.666 518.322 167.128 520.376 172.623C521.299 175.078 522.189 177.537 523.046 180.001C525.299 186.421 527.344 192.859 529.18 199.312C529.884 201.774 530.555 204.233 531.194 206.689C531.877 209.341 532.532 211.985 533.138 214.629C537.638 233.99 540.082 253.084 540.082 271.137Z" fill="#F21414" fill-opacity="0.56"/>
<path id="mesa" d="M295.492 520.937C293.626 520.979 291.752 521 289.872 521C245.201 521 189.015 497.173 138.027 464.19C133.808 461.462 129.627 458.67 125.484 455.814L129.118 433.732L239.13 419.146L294.344 461.307L295.492 520.937Z" fill="#2F2E41"/>
<path id="Vector" d="M300.788 126.623H285.111C284.626 126.623 284.16 126.816 283.817 127.158C283.473 127.501 283.28 127.966 283.28 128.451V144.113C283.281 144.353 283.328 144.59 283.42 144.811C283.512 145.033 283.647 145.234 283.817 145.403C283.988 145.572 284.189 145.706 284.411 145.797C284.633 145.888 284.871 145.935 285.111 145.934H300.788C301.273 145.935 301.737 145.743 302.081 145.401C302.424 145.06 302.617 144.597 302.619 144.113V128.451C302.618 127.967 302.424 127.502 302.081 127.16C301.738 126.817 301.273 126.624 300.788 126.623Z" fill="white"/>
<path id="Vector_2" d="M300.788 153.312H285.111C284.626 153.312 284.16 153.505 283.817 153.847C283.473 154.19 283.28 154.655 283.28 155.14V170.802C283.281 171.042 283.328 171.279 283.42 171.5C283.512 171.722 283.647 171.923 283.817 172.092C283.988 172.261 284.189 172.395 284.411 172.486C284.633 172.577 284.871 172.624 285.111 172.623H300.788C301.273 172.624 301.737 172.432 302.081 172.09C302.424 171.749 302.617 171.286 302.619 170.802V155.14C302.618 154.656 302.424 154.191 302.081 153.849C301.738 153.506 301.273 153.313 300.788 153.312Z" fill="#E6E6E6"/>
<path id="Vector_3" d="M300.788 180.001H285.111C284.626 180.001 284.16 180.194 283.817 180.536C283.473 180.879 283.28 181.344 283.28 181.829V197.484C283.28 197.724 283.327 197.962 283.419 198.184C283.51 198.406 283.645 198.608 283.815 198.778C283.986 198.948 284.188 199.082 284.41 199.174C284.632 199.266 284.871 199.313 285.111 199.312H300.788C301.274 199.312 301.739 199.119 302.083 198.776C302.426 198.434 302.619 197.969 302.619 197.484V181.829C302.618 181.345 302.424 180.88 302.081 180.538C301.738 180.195 301.273 180.002 300.788 180.001Z" fill="#E6E6E6"/>
<path id="Vector_4" d="M302.591 208.195C302.513 207.773 302.29 207.393 301.961 207.118C301.632 206.843 301.217 206.692 300.788 206.689H285.111C284.626 206.69 284.16 206.882 283.817 207.225C283.473 207.568 283.28 208.033 283.28 208.518V224.173C283.28 224.413 283.327 224.651 283.419 224.873C283.51 225.095 283.645 225.297 283.815 225.467C283.986 225.637 284.188 225.771 284.41 225.863C284.632 225.955 284.871 226.002 285.111 226.001H300.788C301.274 226.001 301.739 225.808 302.083 225.465C302.426 225.122 302.619 224.658 302.619 224.173V208.518C302.621 208.409 302.611 208.301 302.591 208.195Z" fill="#E6E6E6"/>
<path id="Vector_5" d="M301.499 233.519C301.274 233.426 301.032 233.378 300.788 233.378H285.111C284.871 233.378 284.632 233.425 284.41 233.517C284.188 233.608 283.986 233.743 283.816 233.913C283.645 234.083 283.511 234.285 283.419 234.507C283.327 234.729 283.28 234.967 283.28 235.207V250.862C283.279 251.102 283.326 251.34 283.417 251.563C283.509 251.785 283.644 251.987 283.814 252.157C283.984 252.327 284.187 252.462 284.409 252.553C284.632 252.645 284.871 252.691 285.111 252.69H300.788C301.274 252.69 301.739 252.497 302.083 252.154C302.426 251.811 302.619 251.347 302.619 250.862V235.207C302.618 234.847 302.512 234.495 302.313 234.195C302.114 233.895 301.831 233.66 301.499 233.519Z" fill="#E6E6E6"/>
<path id="Vector_6" d="M333.719 126.623H318.042C317.557 126.623 317.091 126.816 316.748 127.158C316.405 127.501 316.212 127.966 316.211 128.451V144.113C316.212 144.353 316.259 144.59 316.351 144.811C316.444 145.033 316.579 145.234 316.749 145.403C316.919 145.572 317.121 145.706 317.343 145.797C317.565 145.888 317.802 145.935 318.042 145.934H333.719C334.204 145.935 334.669 145.743 335.012 145.401C335.355 145.06 335.549 144.597 335.55 144.113V128.451C335.549 127.967 335.356 127.502 335.012 127.16C334.669 126.817 334.204 126.624 333.719 126.623Z" fill="#E6E6E6"/>
<path id="Vector_7" d="M333.719 153.312H318.042C317.557 153.312 317.091 153.505 316.748 153.847C316.405 154.19 316.212 154.655 316.211 155.14V170.802C316.212 171.042 316.259 171.279 316.351 171.5C316.444 171.722 316.579 171.923 316.749 172.092C316.919 172.261 317.121 172.395 317.343 172.486C317.565 172.577 317.802 172.624 318.042 172.623H333.719C334.204 172.624 334.669 172.432 335.012 172.09C335.355 171.749 335.549 171.286 335.55 170.802V155.14C335.549 154.656 335.356 154.191 335.012 153.849C334.669 153.506 334.204 153.313 333.719 153.312Z" fill="#6C63FF"/>
<path id="Vector_8" d="M333.719 180.001H318.042C317.557 180.001 317.091 180.194 316.748 180.536C316.405 180.879 316.212 181.344 316.211 181.829V197.484C316.211 197.724 316.258 197.962 316.35 198.184C316.442 198.406 316.577 198.608 316.747 198.778C316.917 198.948 317.119 199.082 317.341 199.174C317.564 199.266 317.802 199.313 318.042 199.312H333.719C334.205 199.312 334.67 199.119 335.014 198.776C335.357 198.434 335.55 197.969 335.55 197.484V181.829C335.549 181.345 335.356 180.88 335.012 180.538C334.669 180.195 334.204 180.002 333.719 180.001Z" fill="#6C63FF"/>
<path id="Vector_9" d="M333.719 206.689H318.042C317.659 206.69 317.285 206.811 316.974 207.036C316.663 207.26 316.43 207.577 316.31 207.941C316.245 208.127 316.212 208.322 316.211 208.518V224.173C316.211 224.413 316.258 224.651 316.35 224.873C316.442 225.095 316.577 225.297 316.747 225.467C316.917 225.637 317.119 225.771 317.341 225.863C317.564 225.955 317.802 226.002 318.042 226.001H333.719C334.205 226.001 334.67 225.808 335.014 225.465C335.357 225.122 335.55 224.658 335.55 224.173V208.518C335.549 208.033 335.356 207.569 335.012 207.227C334.669 206.884 334.204 206.691 333.719 206.689Z" fill="#6C63FF"/>
<path id="Vector_10" d="M333.719 233.378H318.042C317.802 233.378 317.564 233.425 317.341 233.517C317.119 233.608 316.917 233.743 316.747 233.913C316.577 234.083 316.442 234.285 316.35 234.507C316.258 234.729 316.211 234.967 316.211 235.207V250.862C316.211 251.102 316.258 251.34 316.35 251.562C316.442 251.784 316.577 251.986 316.747 252.156C316.917 252.325 317.119 252.46 317.341 252.552C317.564 252.644 317.802 252.691 318.042 252.69H333.719C334.205 252.69 334.67 252.497 335.014 252.154C335.357 251.811 335.55 251.346 335.55 250.862V235.207C335.55 234.722 335.357 234.257 335.014 233.914C334.67 233.571 334.205 233.379 333.719 233.378Z" fill="#E6E6E6"/>
<path id="Vector_11" d="M366.65 126.623H350.974C350.488 126.623 350.023 126.816 349.679 127.158C349.336 127.501 349.143 127.966 349.143 128.451V144.113C349.143 144.353 349.191 144.59 349.283 144.811C349.375 145.033 349.51 145.234 349.68 145.403C349.85 145.572 350.052 145.706 350.274 145.797C350.496 145.888 350.734 145.935 350.974 145.934H366.65C367.135 145.935 367.6 145.743 367.943 145.401C368.286 145.06 368.48 144.597 368.482 144.113V128.451C368.48 127.967 368.287 127.502 367.944 127.16C367.601 126.817 367.136 126.624 366.65 126.623Z" fill="#6C63FF"/>
<path id="Vector_12" d="M366.65 153.312H350.974C350.488 153.312 350.023 153.505 349.679 153.847C349.336 154.19 349.143 154.655 349.143 155.14V170.802C349.143 171.042 349.191 171.279 349.283 171.5C349.375 171.722 349.51 171.923 349.68 172.092C349.85 172.261 350.052 172.395 350.274 172.486C350.496 172.577 350.734 172.624 350.974 172.623H366.65C367.135 172.624 367.6 172.432 367.943 172.09C368.286 171.749 368.48 171.286 368.482 170.802V155.14C368.48 154.656 368.287 154.191 367.944 153.849C367.601 153.506 367.136 153.313 366.65 153.312Z" fill="#6C63FF"/>
<path id="Vector_13" d="M366.65 180.001H350.974C350.488 180.001 350.023 180.194 349.679 180.536C349.336 180.879 349.143 181.344 349.143 181.829V197.484C349.142 197.724 349.189 197.962 349.281 198.184C349.373 198.406 349.508 198.608 349.678 198.778C349.848 198.948 350.05 199.082 350.272 199.174C350.495 199.266 350.733 199.313 350.974 199.312H366.65C367.136 199.312 367.602 199.119 367.945 198.776C368.288 198.434 368.481 197.969 368.482 197.484V181.829C368.48 181.345 368.287 180.88 367.944 180.538C367.601 180.195 367.136 180.002 366.65 180.001Z" fill="#E6E6E6"/>
<path id="Vector_14" d="M366.65 206.689H350.974C350.488 206.69 350.023 206.882 349.679 207.225C349.336 207.568 349.143 208.033 349.143 208.518V224.173C349.142 224.413 349.189 224.651 349.281 224.873C349.373 225.095 349.508 225.297 349.678 225.467C349.848 225.637 350.05 225.771 350.272 225.863C350.495 225.955 350.733 226.002 350.974 226.001H366.65C367.136 226.001 367.602 225.808 367.945 225.465C368.288 225.122 368.481 224.658 368.482 224.173V208.518C368.48 208.033 368.287 207.569 367.944 207.227C367.601 206.884 367.136 206.691 366.65 206.689Z" fill="#6C63FF"/>
<path id="Vector_15" d="M366.65 233.378H350.974C350.733 233.378 350.495 233.425 350.272 233.517C350.05 233.608 349.848 233.743 349.678 233.913C349.508 234.083 349.373 234.285 349.281 234.507C349.189 234.729 349.142 234.967 349.143 235.207V250.862C349.142 251.102 349.189 251.34 349.281 251.562C349.373 251.784 349.508 251.986 349.678 252.156C349.848 252.325 350.05 252.46 350.272 252.552C350.495 252.644 350.733 252.691 350.974 252.69H366.65C367.136 252.69 367.602 252.497 367.945 252.154C368.288 251.811 368.481 251.346 368.482 250.862V235.207C368.481 234.722 368.288 234.257 367.945 233.914C367.602 233.571 367.136 233.379 366.65 233.378Z" fill="#6C63FF"/>
<path id="Vector_16" d="M399.582 126.623H383.905C383.419 126.623 382.954 126.816 382.61 127.158C382.267 127.501 382.074 127.966 382.074 128.451V144.113C382.074 144.353 382.122 144.59 382.214 144.811C382.306 145.033 382.441 145.234 382.611 145.403C382.781 145.572 382.983 145.706 383.205 145.797C383.427 145.888 383.665 145.935 383.905 145.934H399.582C400.066 145.935 400.531 145.743 400.874 145.401C401.217 145.06 401.411 144.597 401.413 144.113V128.451C401.411 127.967 401.218 127.502 400.875 127.16C400.532 126.817 400.067 126.624 399.582 126.623Z" fill="#6C63FF"/>
<path id="Vector_17" d="M399.582 153.312H383.905C383.419 153.312 382.954 153.505 382.61 153.847C382.267 154.19 382.074 154.655 382.074 155.14V170.802C382.074 171.042 382.122 171.279 382.214 171.5C382.306 171.722 382.441 171.923 382.611 172.092C382.781 172.261 382.983 172.395 383.205 172.486C383.427 172.577 383.665 172.624 383.905 172.623H399.582C400.066 172.624 400.531 172.432 400.874 172.09C401.217 171.749 401.411 171.286 401.413 170.802V155.14C401.411 154.656 401.218 154.191 400.875 153.849C400.532 153.506 400.067 153.313 399.582 153.312Z" fill="white"/>
<path id="Vector_18" d="M399.582 180.001H383.905C383.419 180.001 382.954 180.194 382.61 180.536C382.267 180.879 382.074 181.344 382.074 181.829V197.484C382.073 197.724 382.12 197.962 382.212 198.184C382.304 198.406 382.439 198.608 382.609 198.778C382.779 198.948 382.981 199.082 383.204 199.174C383.426 199.266 383.664 199.313 383.905 199.312H399.582C400.067 199.312 400.533 199.119 400.876 198.776C401.22 198.434 401.413 197.969 401.413 197.484V181.829C401.411 181.345 401.218 180.88 400.875 180.538C400.532 180.195 400.067 180.002 399.582 180.001Z" fill="white"/>
<path id="Vector_19" d="M399.582 206.689H383.905C383.419 206.69 382.954 206.882 382.61 207.225C382.267 207.568 382.074 208.033 382.074 208.518V224.173C382.073 224.413 382.12 224.651 382.212 224.873C382.304 225.095 382.439 225.297 382.609 225.467C382.779 225.637 382.981 225.771 383.204 225.863C383.426 225.955 383.664 226.002 383.905 226.001H399.582C400.067 226.001 400.533 225.808 400.876 225.465C401.22 225.122 401.413 224.658 401.413 224.173V208.518C401.411 208.033 401.218 207.569 400.875 207.227C400.532 206.884 400.067 206.691 399.582 206.689Z" fill="#E6E6E6"/>
<path id="Vector_20" d="M399.582 233.378H383.905C383.664 233.378 383.426 233.425 383.204 233.517C382.981 233.608 382.779 233.743 382.609 233.913C382.439 234.083 382.304 234.285 382.212 234.507C382.12 234.729 382.073 234.967 382.074 235.207V250.862C382.073 251.102 382.12 251.34 382.212 251.562C382.304 251.784 382.439 251.986 382.609 252.156C382.779 252.325 382.981 252.46 383.204 252.552C383.426 252.644 383.664 252.691 383.905 252.69H399.582C400.067 252.69 400.533 252.497 400.876 252.154C401.22 251.811 401.413 251.346 401.413 250.862V235.207C401.413 234.722 401.22 234.257 400.876 233.914C400.533 233.571 400.067 233.379 399.582 233.378Z" fill="#6C63FF"/>
<path id="Vector_21" d="M432.513 126.623H416.829C416.345 126.624 415.881 126.818 415.539 127.161C415.197 127.503 415.005 127.967 415.005 128.451V144.113C415.005 144.596 415.197 145.059 415.539 145.401C415.881 145.742 416.345 145.934 416.829 145.934H432.513C432.997 145.935 433.462 145.743 433.805 145.401C434.149 145.06 434.342 144.597 434.344 144.113V128.451C434.343 127.967 434.149 127.502 433.806 127.16C433.463 126.817 432.998 126.624 432.513 126.623Z" fill="white"/>
<path id="Vector_22" d="M432.513 153.312H416.829C416.345 153.313 415.881 153.507 415.539 153.849C415.197 154.192 415.005 154.656 415.005 155.14V170.802C415.005 171.285 415.197 171.748 415.539 172.09C415.881 172.431 416.345 172.623 416.829 172.623H432.513C432.997 172.624 433.462 172.432 433.805 172.09C434.149 171.749 434.342 171.286 434.344 170.802V155.14C434.343 154.656 434.149 154.191 433.806 153.849C433.463 153.506 432.998 153.313 432.513 153.312Z" fill="white"/>
<path id="Vector_23" d="M432.513 180.001H416.829C416.345 180.002 415.881 180.196 415.539 180.538C415.197 180.881 415.005 181.345 415.005 181.829V197.484C415.004 197.724 415.051 197.961 415.142 198.183C415.234 198.404 415.368 198.606 415.537 198.776C415.707 198.946 415.908 199.08 416.13 199.172C416.351 199.264 416.589 199.312 416.829 199.312H432.513C432.998 199.312 433.464 199.119 433.807 198.776C434.151 198.434 434.344 197.969 434.344 197.484V181.829C434.343 181.345 434.149 180.88 433.806 180.538C433.463 180.195 432.998 180.002 432.513 180.001Z" fill="white"/>
<path id="Vector_24" d="M432.513 206.689H416.829C416.345 206.691 415.881 206.885 415.539 207.227C415.197 207.57 415.005 208.034 415.005 208.518V224.173C415.004 224.412 415.051 224.65 415.142 224.872C415.234 225.093 415.368 225.295 415.537 225.465C415.707 225.634 415.908 225.769 416.13 225.861C416.351 225.953 416.589 226.001 416.829 226.001H432.513C432.998 226.001 433.464 225.808 433.807 225.465C434.151 225.123 434.344 224.658 434.344 224.173V208.518C434.343 208.033 434.149 207.569 433.806 207.227C433.463 206.884 432.998 206.691 432.513 206.689Z" fill="#6C63FF"/>
<path id="Vector_25" d="M432.513 233.378H416.829C416.589 233.379 416.351 233.426 416.13 233.518C415.908 233.61 415.707 233.745 415.537 233.915C415.368 234.085 415.234 234.286 415.142 234.508C415.051 234.73 415.004 234.967 415.005 235.207V250.862C415.004 251.101 415.051 251.339 415.142 251.561C415.234 251.782 415.368 251.984 415.537 252.154C415.707 252.323 415.908 252.458 416.13 252.55C416.351 252.642 416.589 252.69 416.829 252.69H432.513C432.998 252.69 433.464 252.497 433.807 252.154C434.151 251.811 434.344 251.346 434.344 250.862V235.207C434.344 234.722 434.151 234.257 433.807 233.914C433.464 233.571 432.998 233.379 432.513 233.378Z" fill="#E6E6E6"/>
<path id="Vector_26" d="M465.444 126.623H449.76C449.276 126.624 448.812 126.818 448.47 127.161C448.128 127.503 447.936 127.967 447.936 128.451V144.113C447.936 144.596 448.128 145.059 448.47 145.401C448.813 145.742 449.276 145.934 449.76 145.934H465.444C465.929 145.935 466.393 145.743 466.737 145.401C467.08 145.06 467.274 144.597 467.275 144.113V128.451C467.274 127.967 467.08 127.502 466.737 127.16C466.394 126.817 465.929 126.624 465.444 126.623Z" fill="white"/>
<path id="Vector_27" d="M465.444 153.312H449.76C449.276 153.313 448.812 153.507 448.47 153.849C448.128 154.192 447.936 154.656 447.936 155.14V170.802C447.936 171.285 448.128 171.748 448.47 172.09C448.813 172.431 449.276 172.623 449.76 172.623H465.444C465.929 172.623 466.393 172.432 466.737 172.09C467.08 171.749 467.274 171.286 467.275 170.802V155.14C467.274 154.656 467.08 154.191 466.737 153.849C466.394 153.506 465.929 153.313 465.444 153.312Z" fill="white"/>
<path id="Vector_28" d="M465.444 180.001H449.76C449.276 180.002 448.812 180.196 448.47 180.538C448.128 180.881 447.936 181.345 447.936 181.829V197.484C447.935 197.724 447.982 197.961 448.074 198.183C448.165 198.404 448.299 198.606 448.468 198.776C448.638 198.946 448.839 199.08 449.061 199.172C449.283 199.264 449.52 199.312 449.76 199.312H465.444C465.93 199.312 466.395 199.119 466.739 198.776C467.082 198.434 467.275 197.969 467.275 197.484V181.829C467.274 181.345 467.08 180.88 466.737 180.538C466.394 180.195 465.929 180.002 465.444 180.001Z" fill="#6C63FF"/>
<path id="Vector_29" d="M465.444 206.689H449.76C449.276 206.691 448.812 206.885 448.47 207.227C448.128 207.57 447.936 208.034 447.936 208.518V224.173C447.935 224.412 447.982 224.65 448.074 224.872C448.165 225.093 448.299 225.295 448.468 225.465C448.638 225.634 448.839 225.769 449.061 225.861C449.283 225.953 449.52 226.001 449.76 226.001H465.444C465.93 226.001 466.395 225.808 466.739 225.465C467.082 225.123 467.275 224.658 467.275 224.173V208.518C467.274 208.033 467.08 207.569 466.737 207.227C466.394 206.884 465.929 206.691 465.444 206.689Z" fill="#E6E6E6"/>
<path id="Vector_30" d="M465.444 233.378H449.76C449.52 233.379 449.283 233.426 449.061 233.518C448.839 233.61 448.638 233.745 448.468 233.915C448.299 234.085 448.165 234.286 448.074 234.508C447.982 234.73 447.935 234.967 447.936 235.207V250.862C447.935 251.101 447.982 251.339 448.074 251.561C448.165 251.782 448.299 251.984 448.468 252.154C448.638 252.323 448.839 252.458 449.061 252.55C449.283 252.642 449.52 252.69 449.76 252.69H465.444C465.93 252.69 466.395 252.497 466.739 252.154C467.082 251.811 467.275 251.346 467.275 250.862V235.207C467.275 234.722 467.082 234.257 466.739 233.914C466.395 233.571 465.93 233.379 465.444 233.378Z" fill="white"/>
<path id="Vector_31" d="M498.375 126.623H482.691C482.207 126.624 481.743 126.818 481.401 127.161C481.059 127.503 480.867 127.967 480.867 128.451V144.113C480.867 144.596 481.06 145.059 481.402 145.401C481.744 145.742 482.208 145.934 482.691 145.934H498.375C498.86 145.935 499.324 145.743 499.668 145.401C500.011 145.06 500.205 144.597 500.206 144.113V128.451C500.205 127.967 500.011 127.502 499.668 127.16C499.325 126.817 498.86 126.624 498.375 126.623Z" fill="#6C63FF"/>
<path id="Vector_32" d="M498.375 153.312H482.691C482.207 153.313 481.743 153.507 481.401 153.849C481.059 154.192 480.867 154.656 480.867 155.14V170.802C480.867 171.285 481.06 171.748 481.402 172.09C481.744 172.431 482.208 172.623 482.691 172.623H498.375C498.86 172.623 499.324 172.432 499.668 172.09C500.011 171.749 500.205 171.286 500.206 170.802V155.14C500.205 154.656 500.012 154.191 499.668 153.849C499.325 153.506 498.86 153.313 498.375 153.312Z" fill="#6C63FF"/>
<path id="Vector_33" d="M498.375 180.001H482.691C482.207 180.002 481.743 180.196 481.401 180.538C481.059 180.881 480.867 181.345 480.867 181.829V197.484C480.867 197.724 480.913 197.961 481.005 198.183C481.096 198.404 481.23 198.606 481.4 198.776C481.569 198.946 481.77 199.08 481.992 199.172C482.214 199.264 482.451 199.312 482.691 199.312H498.375C498.861 199.312 499.326 199.119 499.67 198.776C500.013 198.434 500.206 197.969 500.206 197.484V181.829C500.205 181.345 500.012 180.88 499.668 180.538C499.325 180.195 498.86 180.002 498.375 180.001Z" fill="#E6E6E6"/>
<path id="Vector_34" d="M498.375 206.689H482.691C482.207 206.691 481.743 206.885 481.401 207.227C481.059 207.57 480.867 208.034 480.867 208.518V224.173C480.867 224.412 480.913 224.65 481.005 224.872C481.096 225.093 481.23 225.295 481.4 225.465C481.569 225.634 481.77 225.769 481.992 225.861C482.214 225.953 482.451 226.001 482.691 226.001H498.375C498.861 226.001 499.326 225.808 499.67 225.465C500.013 225.123 500.206 224.658 500.206 224.173V208.518C500.205 208.033 500.012 207.569 499.668 207.227C499.325 206.884 498.86 206.691 498.375 206.689Z" fill="white"/>
<path id="Vector_35" d="M498.375 233.378H482.691C482.451 233.379 482.214 233.426 481.992 233.518C481.77 233.61 481.569 233.745 481.4 233.915C481.23 234.085 481.096 234.286 481.005 234.508C480.913 234.73 480.867 234.967 480.867 235.207V250.862C480.867 251.101 480.913 251.339 481.005 251.561C481.096 251.782 481.23 251.984 481.4 252.154C481.569 252.323 481.77 252.458 481.992 252.55C482.214 252.642 482.451 252.69 482.691 252.69H498.375C498.861 252.69 499.326 252.497 499.67 252.154C500.013 251.811 500.206 251.346 500.206 250.862V235.207C500.206 234.722 500.013 234.257 499.67 233.914C499.326 233.571 498.861 233.379 498.375 233.378Z" fill="#6C63FF"/>
<path id="Vector_36" d="M531.306 126.623H515.623C515.138 126.624 514.674 126.818 514.332 127.161C513.99 127.503 513.798 127.967 513.799 128.451V144.113C513.799 144.596 513.991 145.059 514.333 145.401C514.675 145.742 515.139 145.934 515.623 145.934H531.306C531.791 145.935 532.256 145.743 532.599 145.401C532.942 145.06 533.136 144.597 533.138 144.113V128.451C533.136 127.967 532.943 127.502 532.6 127.16C532.257 126.817 531.792 126.624 531.306 126.623Z" fill="#6C63FF"/>
<path id="Vector_37" d="M531.306 153.312H515.623C515.138 153.313 514.674 153.507 514.332 153.849C513.99 154.192 513.798 154.656 513.799 155.14V170.802C513.799 171.285 513.991 171.748 514.333 172.09C514.675 172.431 515.139 172.623 515.623 172.623H531.306C531.791 172.623 532.256 172.432 532.599 172.09C532.942 171.749 533.136 171.286 533.138 170.802V155.14C533.136 154.656 532.943 154.191 532.6 153.849C532.257 153.506 531.792 153.313 531.306 153.312Z" fill="#6C63FF"/>
<path id="Vector_38" d="M531.306 180.001H515.623C515.138 180.002 514.674 180.196 514.332 180.538C513.99 180.881 513.798 181.345 513.799 181.829V197.484C513.798 197.724 513.845 197.961 513.936 198.183C514.027 198.404 514.161 198.606 514.331 198.776C514.5 198.946 514.702 199.08 514.923 199.172C515.145 199.264 515.383 199.312 515.623 199.312H531.306C531.792 199.312 532.258 199.119 532.601 198.776C532.944 198.434 533.137 197.969 533.138 197.484V181.829C533.136 181.345 532.943 180.88 532.6 180.538C532.257 180.195 531.792 180.002 531.306 180.001Z" fill="#E6E6E6"/>
<path id="Vector_39" d="M531.306 206.689H515.623C515.138 206.691 514.674 206.885 514.332 207.227C513.99 207.57 513.798 208.034 513.799 208.518V224.173C513.798 224.412 513.845 224.65 513.936 224.872C514.027 225.093 514.161 225.295 514.331 225.465C514.5 225.634 514.702 225.769 514.923 225.861C515.145 225.953 515.383 226.001 515.623 226.001H531.306C531.792 226.001 532.258 225.808 532.601 225.465C532.944 225.123 533.137 224.658 533.138 224.173V208.518C533.136 208.033 532.943 207.569 532.6 207.227C532.257 206.884 531.792 206.691 531.306 206.689Z" fill="#6C63FF"/>
<path id="Vector_40" d="M531.306 233.378H515.623C515.383 233.379 515.145 233.426 514.923 233.518C514.702 233.61 514.5 233.745 514.331 233.915C514.161 234.085 514.027 234.286 513.936 234.508C513.845 234.73 513.798 234.967 513.799 235.207V250.862C513.798 251.101 513.845 251.339 513.936 251.561C514.027 251.782 514.161 251.984 514.331 252.154C514.5 252.323 514.702 252.458 514.923 252.55C515.145 252.642 515.383 252.69 515.623 252.69H531.306C531.792 252.69 532.258 252.497 532.601 252.154C532.944 251.811 533.137 251.346 533.138 250.862V235.207C533.137 234.722 532.944 234.257 532.601 233.914C532.258 233.571 531.792 233.379 531.306 233.378Z" fill="#6C63FF"/>
<path id="Vector_41" d="M564.238 126.623H548.554C548.069 126.624 547.605 126.818 547.263 127.161C546.922 127.503 546.73 127.967 546.73 128.451V144.113C546.73 144.596 546.922 145.059 547.264 145.401C547.606 145.742 548.07 145.934 548.554 145.934H564.238C564.722 145.935 565.187 145.743 565.53 145.401C565.873 145.06 566.067 144.597 566.069 144.113V128.451C566.067 127.967 565.874 127.502 565.531 127.16C565.188 126.817 564.723 126.624 564.238 126.623Z" fill="#E6E6E6"/>
<path id="Vector_42" d="M564.238 153.312H548.554C548.069 153.313 547.605 153.507 547.263 153.849C546.921 154.192 546.73 154.656 546.73 155.14V170.802C546.73 171.285 546.922 171.748 547.264 172.09C547.606 172.431 548.07 172.623 548.554 172.623H564.238C564.722 172.623 565.187 172.432 565.53 172.09C565.873 171.749 566.067 171.286 566.069 170.802V155.14C566.067 154.656 565.874 154.191 565.531 153.849C565.188 153.506 564.723 153.313 564.238 153.312Z" fill="#6C63FF"/>
<path id="Vector_43" d="M564.238 180.001H548.554C548.069 180.002 547.605 180.196 547.263 180.538C546.922 180.881 546.73 181.345 546.73 181.829V197.484C546.729 197.724 546.776 197.961 546.867 198.183C546.958 198.404 547.093 198.606 547.262 198.776C547.432 198.946 547.633 199.08 547.854 199.172C548.076 199.264 548.314 199.312 548.554 199.312H564.238C564.723 199.312 565.189 199.119 565.532 198.776C565.875 198.434 566.068 197.969 566.069 197.484V181.829C566.067 181.345 565.874 180.88 565.531 180.538C565.188 180.195 564.723 180.002 564.238 180.001Z" fill="#6C63FF"/>
<path id="Vector_44" d="M564.238 206.689H548.554C548.069 206.691 547.605 206.885 547.263 207.227C546.922 207.57 546.73 208.034 546.73 208.518V224.173C546.729 224.412 546.776 224.65 546.867 224.872C546.958 225.093 547.093 225.295 547.262 225.465C547.432 225.634 547.633 225.769 547.854 225.861C548.076 225.953 548.314 226.001 548.554 226.001H564.238C564.723 226.001 565.189 225.808 565.532 225.465C565.876 225.123 566.068 224.658 566.069 224.173V208.518C566.067 208.033 565.874 207.569 565.531 207.227C565.188 206.884 564.723 206.691 564.238 206.689Z" fill="#6C63FF"/>
<path id="Vector_45" d="M564.238 233.378H548.554C548.314 233.379 548.076 233.426 547.854 233.518C547.633 233.61 547.432 233.745 547.262 233.915C547.093 234.085 546.958 234.286 546.867 234.508C546.776 234.73 546.729 234.967 546.73 235.207V250.862C546.729 251.101 546.776 251.339 546.867 251.561C546.958 251.782 547.093 251.984 547.262 252.154C547.432 252.323 547.633 252.458 547.854 252.55C548.076 252.642 548.314 252.69 548.554 252.69H564.238C564.723 252.69 565.189 252.497 565.532 252.154C565.876 251.811 566.068 251.346 566.069 250.862V235.207C566.068 234.722 565.876 234.257 565.532 233.914C565.189 233.571 564.723 233.379 564.238 233.378Z" fill="#E6E6E6"/>
<path id="Vector_46" d="M597.169 126.623H581.485C581.001 126.624 580.537 126.818 580.195 127.161C579.853 127.503 579.661 127.967 579.661 128.451V144.113C579.661 144.596 579.853 145.059 580.195 145.401C580.537 145.742 581.001 145.934 581.485 145.934H597.169C597.653 145.935 598.118 145.743 598.461 145.401C598.805 145.06 598.998 144.597 599 144.113V128.451C598.999 127.967 598.805 127.502 598.462 127.16C598.119 126.817 597.654 126.624 597.169 126.623Z" fill="#E6E6E6"/>
<path id="Vector_47" d="M597.169 153.312H581.485C581.001 153.313 580.536 153.507 580.195 153.849C579.853 154.192 579.661 154.656 579.661 155.14V170.802C579.661 171.285 579.853 171.748 580.195 172.09C580.537 172.431 581.001 172.623 581.485 172.623H597.169C597.653 172.623 598.118 172.432 598.461 172.09C598.805 171.749 598.998 171.286 599 170.802V155.14C598.999 154.656 598.805 154.191 598.462 153.849C598.119 153.506 597.654 153.313 597.169 153.312Z" fill="#E6E6E6"/>
<path id="Vector_48" d="M597.169 180.001H581.485C581.001 180.002 580.536 180.196 580.195 180.538C579.853 180.881 579.661 181.345 579.661 181.829V197.484C579.66 197.724 579.707 197.961 579.798 198.183C579.89 198.404 580.024 198.606 580.193 198.776C580.363 198.946 580.564 199.08 580.786 199.172C581.007 199.264 581.245 199.312 581.485 199.312H597.169C597.654 199.312 598.12 199.119 598.463 198.776C598.807 198.434 599 197.969 599 197.484V181.829C598.999 181.345 598.805 180.88 598.462 180.538C598.119 180.195 597.654 180.002 597.169 180.001Z" fill="#6C63FF"/>
<path id="Vector_49" d="M597.169 206.689H581.485C581.001 206.691 580.537 206.885 580.195 207.227C579.853 207.57 579.661 208.034 579.661 208.518V224.173C579.66 224.412 579.707 224.65 579.798 224.872C579.89 225.093 580.024 225.295 580.193 225.465C580.363 225.634 580.564 225.769 580.786 225.861C581.007 225.953 581.245 226.001 581.485 226.001H597.169C597.654 226.001 598.12 225.808 598.463 225.465C598.807 225.123 599 224.658 599 224.173V208.518C598.999 208.033 598.805 207.569 598.462 207.227C598.119 206.884 597.654 206.691 597.169 206.689Z" fill="#E6E6E6"/>
<path id="Vector_50" d="M597.169 233.378H581.485C581.245 233.379 581.007 233.426 580.786 233.518C580.564 233.61 580.363 233.745 580.193 233.915C580.024 234.085 579.89 234.286 579.798 234.508C579.707 234.73 579.66 234.967 579.661 235.207V250.862C579.66 251.101 579.707 251.339 579.798 251.561C579.89 251.782 580.024 251.984 580.193 252.154C580.363 252.323 580.564 252.458 580.786 252.55C581.007 252.642 581.245 252.69 581.485 252.69H597.169C597.654 252.69 598.12 252.497 598.463 252.154C598.807 251.811 599 251.346 599 250.862V235.207C599 234.722 598.807 234.257 598.463 233.914C598.12 233.571 597.654 233.379 597.169 233.378Z" fill="#E6E6E6"/>
<path id="ponto" d="M236.698 464.191H236.262L236.635 464.142L236.698 464.191Z" fill="#2F2E41"/>
<path id="ab6171fa-7d69-4734-b81c-8dff60f9761b" d="M199.175 172.339C225.749 172.339 247.291 150.826 247.291 124.29C247.291 97.7537 225.749 76.2417 199.175 76.2417C172.601 76.2417 151.059 97.7537 151.059 124.29C151.059 150.826 172.601 172.339 199.175 172.339Z" fill="#FFB6B6"/>
<path id="bf427902-b9bf-4946-b5d7-5c1c7e04535e" d="M241.312 89.0618C241.312 89.0618 253.897 65.0376 226.21 62.8536C226.21 62.8536 202.607 41.4727 178.548 58.9448C178.548 58.9448 165.426 58.9448 158.25 73.7737C158.25 73.7737 147.929 69.8649 145.661 80.3257C145.661 80.3257 138.109 102.166 145.661 121.822C153.213 141.478 155.722 143.662 155.722 143.662C155.722 143.662 143.312 102.452 173.518 100.268C203.724 98.0839 237.526 79.2337 240.043 103.258C242.561 127.282 246.349 133.201 246.349 133.201C246.349 133.201 270.258 98.89 241.312 89.0618Z" fill="#2F2E41"/>
<path id="corpo" d="M323.641 242.704L323.486 243.52L321.747 252.69L309.725 316.125L309.014 319.859L307.521 327.757L305.479 338.531L300.95 362.407L299.654 369.249L299.168 371.816L298.999 372.716L297.654 379.798L297.246 381.936L293.964 406.22L291.097 427.381L300.69 436.96L294.971 442.67L291.217 464.141L291.224 464.19H138.027C131.829 460.182 125.721 456.049 119.702 451.792L120.962 442.368C120.962 442.368 125.301 425.539 123.476 423.527C121.66 421.516 117.673 417.922 117.673 417.922L122.695 406.22L123.392 404.595L122.223 380.382L122.195 379.798L121.808 371.816L121.758 370.789L121.681 369.249L120.195 338.531L120.167 338.024L119.716 328.713L119.293 319.859L119.11 316.125L117.3 278.76L116.075 253.386L115.004 231.297L119.307 229.841L165.331 214.221L184.395 189.473L224.073 189.769L243.497 189.917L275.907 219.932L283.28 223.448L283.337 223.476L288.626 226.001L302.035 232.394L316.212 239.159L323.486 242.626L323.641 242.704Z" fill="#BCA44D"/>
<path id="m&#195;&#163;o" d="M189.523 392.106C186.615 393.231 183.496 393.706 180.385 393.497C177.274 393.287 174.246 392.4 171.516 390.896C168.785 389.392 166.418 387.308 164.582 384.792C162.745 382.276 161.483 379.388 160.885 376.332L85.8395 365.7L111.927 336.232L179.192 350.846C184.4 350.183 189.67 351.45 194.005 354.408C198.339 357.365 201.436 361.808 202.71 366.894C203.983 371.98 203.344 377.356 200.914 382.002C198.483 386.649 194.43 390.244 189.523 392.106V392.106Z" fill="#FFB6B6"/>
<path id="bra&#195;&#167;o" d="M156.063 338.531C154.672 336.771 152.705 335.558 150.506 335.106L119.716 328.713L116.554 328.059C114.716 327.676 112.98 326.91 111.459 325.811C109.939 324.712 108.668 323.304 107.729 321.68C106.756 319.976 106.167 318.08 106.004 316.125C105.857 314.347 106.07 312.558 106.631 310.864L117.3 278.76L124.223 257.929C125.062 255.417 125.557 252.803 125.695 250.158C126.081 242.839 123.813 235.627 119.307 229.841C115.346 224.756 109.852 221.078 103.636 219.35C97.421 217.623 90.8139 217.938 84.7915 220.248C84.6154 220.312 84.4323 220.382 84.2562 220.452C79.9372 222.175 76.0784 224.876 72.9848 228.344C69.8913 231.811 67.6477 235.95 66.4314 240.432L58.9099 267.754L43.395 324.079C41.8419 329.722 41.5282 335.634 42.4752 341.409C43.4223 347.185 45.6078 352.688 48.8821 357.542C52.1565 362.395 56.4425 366.486 61.4466 369.532C66.4507 372.578 72.0549 374.509 77.8756 375.192L122.223 380.382L142.745 382.787C145.118 383.072 147.511 382.454 149.448 381.055C151.385 379.657 152.723 377.581 153.196 375.241C153.229 375.114 153.255 374.985 153.274 374.854L153.767 371.816L157.943 346.231L157.985 345.971C158.203 344.666 158.144 343.329 157.813 342.048C157.482 340.766 156.886 339.568 156.063 338.531Z" fill="#BCA44D"/>
<path id="m&#195;&#163;o_2" d="M237.323 392.927C240.361 393.631 243.516 393.661 246.566 393.016C249.617 392.371 252.489 391.066 254.979 389.192C257.47 387.319 259.519 384.923 260.982 382.173C262.445 379.423 263.287 376.387 263.448 373.277L336.241 352.184L306.253 326.684L241.724 350.624C236.475 350.7 231.436 352.697 227.562 356.236C223.689 359.774 221.25 364.609 220.707 369.823C220.165 375.038 221.557 380.27 224.619 384.528C227.682 388.786 232.202 391.774 237.323 392.927V392.927Z" fill="#FFB6B6"/>
<path id="bra&#195;&#167;o_2" d="M372.383 304.999L337.762 225.432C334.93 218.899 329.872 213.58 323.486 210.417C321.512 209.446 319.439 208.692 317.303 208.166C316.972 208.082 316.641 208.005 316.31 207.941C311.78 206.954 307.081 207.041 302.591 208.194C298.486 209.247 294.65 211.153 291.332 213.786C288.015 216.419 285.29 219.721 283.337 223.476C283.315 223.508 283.296 223.541 283.28 223.575C281.098 227.791 279.937 232.459 279.892 237.205C279.847 241.95 280.918 246.64 283.02 250.897L283.449 251.755L307.915 300.822C308.751 302.499 309.221 304.335 309.296 306.207C309.372 308.079 309.05 309.946 308.351 311.686C307.653 313.425 306.594 314.997 305.245 316.299C303.895 317.601 302.285 318.603 300.52 319.24L298.802 319.859L267.899 331.006C265.58 331.832 263.673 333.525 262.579 335.727C261.484 337.929 261.289 340.47 262.033 342.814L262.11 343.06L270.773 370.74C270.815 370.867 270.857 370.993 270.906 371.12C270.982 371.359 271.077 371.592 271.188 371.816C272.109 373.878 273.736 375.544 275.777 376.515C277.818 377.486 280.139 377.697 282.322 377.112L298.999 372.716L302.401 371.816L345.466 360.459C351.133 358.963 356.409 356.263 360.933 352.542C365.458 348.822 369.123 344.169 371.68 338.902C374.236 333.635 375.622 327.879 375.744 322.027C375.865 316.176 374.719 310.367 372.383 304.999L372.383 304.999Z" fill="#BCA44D" fill-opacity="0.91"/>
<path id="mesa_2" d="M31.6199 371.816C41.5995 383.971 52.3623 395.464 63.8398 406.22H382.144C385.211 406.225 388.151 407.444 390.318 409.61C392.486 411.776 393.705 414.712 393.708 417.775L394.166 498.32C413.748 489.336 432.086 477.864 448.725 464.19C453.345 460.4 457.822 456.445 462.155 452.326C464.993 449.64 467.763 446.888 470.465 444.07C490.723 422.997 507.126 398.542 518.933 371.816H31.6199Z" fill="#3F3D56"/>
<path id="mesa_3" d="M470.465 444.07C467.768 446.89 464.998 449.642 462.155 452.326H394.398V444.07H470.465Z" fill="white"/>
<path id="tela" d="M323.008 180.001C322.673 179.384 322.177 178.868 321.574 178.509C320.97 178.15 320.28 177.961 319.578 177.961H88.6931C87.658 177.964 86.6661 178.376 85.9348 179.108C85.2035 179.839 84.7924 180.831 84.7915 181.864V319.859H323.486V181.864C323.49 181.212 323.325 180.57 323.008 180.001Z" fill="#2320D5"/>
<path id="tela_2" d="M84.5824 316.123V333.152C84.5824 333.858 84.7217 334.557 84.9922 335.209C85.2627 335.861 85.6592 336.454 86.1591 336.953C86.659 337.452 87.2525 337.848 87.9056 338.118C88.5587 338.388 89.2587 338.527 89.9657 338.527H178.066V372.134H176.896C176.804 372.134 176.713 372.152 176.628 372.187C176.543 372.222 176.466 372.274 176.401 372.339C176.336 372.403 176.285 372.48 176.25 372.565C176.215 372.65 176.197 372.741 176.197 372.832V375.17C176.197 375.262 176.215 375.352 176.25 375.437C176.285 375.522 176.336 375.599 176.401 375.664C176.466 375.728 176.543 375.78 176.628 375.815C176.713 375.85 176.804 375.868 176.896 375.868H231.588C231.679 375.868 231.77 375.85 231.855 375.815C231.94 375.78 232.017 375.728 232.082 375.664C232.147 375.599 232.199 375.522 232.234 375.437C232.269 375.352 232.287 375.262 232.287 375.17V372.832C232.287 372.741 232.269 372.65 232.234 372.565C232.199 372.48 232.147 372.403 232.082 372.339C232.017 372.274 231.94 372.222 231.855 372.187C231.77 372.152 231.679 372.134 231.588 372.134H230.417V338.527H318.518C319.225 338.527 319.925 338.388 320.578 338.118C321.231 337.848 321.825 337.452 322.324 336.953C322.824 336.454 323.221 335.861 323.491 335.209C323.762 334.557 323.901 333.858 323.901 333.152V316.123H84.5824Z" fill="#3F3D56"/>
<path id="tela_3" d="M201.35 267.248C213.527 267.248 223.398 257.391 223.398 245.231C223.398 233.072 213.527 223.215 201.35 223.215C189.173 223.215 179.302 233.072 179.302 245.231C179.302 257.391 189.173 267.248 201.35 267.248Z" fill="#FE0E0E"/>
<path id="fone" d="M257.525 121.665H254.004C254.004 95.0812 227.658 77.6613 201.079 77.6473C197.213 77.636 193.356 78.0106 189.564 78.7655C185.296 79.6164 180.867 80.6361 176.514 81.9653C159.352 87.2187 143.435 97.3739 143.435 121.665C143.432 126.382 144.033 131.081 145.224 135.646L141.815 136.532C140.551 131.677 139.912 126.681 139.914 121.665C139.914 100.44 148.64 85.8614 163.711 77.169C171.634 72.5978 181.303 69.6511 192.381 68.2165C196.991 67.604 201.652 67.4627 206.29 67.7945C236.855 69.9887 257.525 93.3934 257.525 121.665Z" fill="#FE0E0E"/>
<path id="fone_2" d="M263.392 123.613L262.004 113.373C261.662 110.787 260.415 108.406 258.483 106.65C257.243 105.505 255.759 104.657 254.142 104.17C252.525 103.683 250.819 103.569 249.152 103.837L246.947 104.139C246.344 104.219 245.763 104.417 245.237 104.722C244.711 105.028 244.251 105.434 243.884 105.919C243.513 106.401 243.243 106.952 243.087 107.54C242.931 108.128 242.893 108.741 242.975 109.343L246.18 132.931C246.312 133.892 246.743 134.788 247.413 135.491C248.083 136.194 248.957 136.669 249.912 136.848C250.195 136.905 250.483 136.933 250.772 136.933C250.979 136.932 251.186 136.918 251.391 136.89L253.856 136.56C255.359 136.361 256.805 135.857 258.106 135.079C259.407 134.302 260.534 133.267 261.42 132.038C261.61 131.771 261.793 131.496 261.962 131.215C263.282 128.914 263.786 126.235 263.392 123.613Z" fill="#6C63FF"/>
<path id="fone_3" d="M245.525 104.568C244.878 104.882 244.316 105.345 243.884 105.919C243.513 106.401 243.243 106.952 243.087 107.54C242.931 108.128 242.893 108.741 242.975 109.343L246.18 132.931C246.312 133.892 246.743 134.788 247.413 135.491C248.083 136.194 248.957 136.669 249.912 136.848L245.525 104.568Z" fill="white"/>
<path id="fone_4" d="M263.392 123.613L262.004 113.373C261.662 110.787 260.415 108.406 258.483 106.65L261.673 130.118C261.721 130.495 261.818 130.863 261.962 131.215C263.282 128.914 263.786 126.235 263.392 123.613Z" fill="#3F3D56"/>
<path id="fone_5" d="M252.427 130.99C253.39 130.86 253.875 128.57 253.509 125.876C253.143 123.182 252.065 121.104 251.101 121.234C250.138 121.365 249.653 123.654 250.019 126.349C250.385 129.043 251.463 131.121 252.427 130.99Z" fill="#3F3D56"/>
<path id="fone_6" d="M250.314 118.332C251.278 118.201 251.762 115.911 251.396 113.217C251.03 110.523 249.952 108.445 248.989 108.575C248.025 108.706 247.541 110.996 247.907 113.69C248.273 116.384 249.35 118.462 250.314 118.332Z" fill="#3F3D56"/>
<path id="fone_7" d="M263.695 123.255C264.659 123.124 265.143 120.834 264.777 118.14C264.411 115.446 263.333 113.368 262.37 113.498C261.406 113.629 260.922 115.919 261.288 118.613C261.654 121.307 262.731 123.385 263.695 123.255Z" fill="#3F3D56"/>
<path id="fone_8" d="M201.079 77.6473C197.213 77.636 193.356 78.0106 189.564 78.7654C185.296 79.6164 180.867 80.6361 176.514 81.9653C169.718 81.6348 164.718 79.8766 163.711 77.169C171.634 72.5978 181.303 69.6511 192.381 68.2165C196.991 67.604 201.652 67.4626 206.29 67.7945C206.782 68.082 207.206 68.47 207.536 68.933C207.866 69.396 208.095 69.9236 208.206 70.481C208.537 72.9284 205.741 75.5304 201.079 77.6473Z" fill="#3F3D56"/>
<path id="fone_9" d="M156.119 146.068L150.696 123.556C150.503 122.744 150.073 122.007 149.462 121.438C148.851 120.869 148.084 120.492 147.259 120.357C147.026 120.32 146.791 120.302 146.555 120.3C146.223 120.302 145.892 120.342 145.569 120.42L143.47 120.926C140.768 121.579 138.436 123.275 136.985 125.643C135.534 128.011 135.083 130.857 135.731 133.557L138.16 143.656C138.715 146.033 140.036 148.163 141.921 149.718C142.227 149.964 142.546 150.192 142.879 150.4C144.059 151.139 145.376 151.634 146.751 151.856C148.127 152.079 149.533 152.023 150.886 151.694L152.978 151.188C153.531 151.059 154.051 150.817 154.506 150.478C155.183 149.985 155.697 149.303 155.984 148.518C156.271 147.733 156.318 146.88 156.119 146.068Z" fill="#6C63FF"/>
<path id="fone_10" d="M144.751 141.879C145.696 141.652 145.946 139.325 145.309 136.682C144.672 134.038 143.389 132.08 142.444 132.307C141.498 132.534 141.248 134.861 141.885 137.505C142.522 140.148 143.805 142.107 144.751 141.879Z" fill="#3F3D56"/>
<path id="fone_11" d="M137.708 143.989C138.653 143.762 138.903 141.435 138.266 138.792C137.629 136.148 136.347 134.19 135.401 134.417C134.456 134.644 134.206 136.971 134.843 139.614C135.48 142.258 136.763 144.216 137.708 143.989Z" fill="#3F3D56"/>
<path id="fone_12" d="M156.464 145.984L151.041 123.472C150.83 122.593 150.364 121.796 149.701 121.181C149.038 120.565 148.209 120.159 147.316 120.012L154.718 150.759C155.448 150.224 156.004 149.485 156.315 148.635C156.626 147.786 156.678 146.863 156.464 145.984Z" fill="white"/>
<path id="fone_13" d="M136.956 129.098C136.806 128.472 136.526 127.885 136.132 127.375C135.37 129.347 135.23 131.504 135.731 133.557L138.16 143.656C138.715 146.033 140.036 148.163 141.921 149.718L136.956 129.098Z" fill="#3F3D56"/>
</g>
<defs>
<clipPath id="clip0_344:660">
<rect width="599" height="521" fill="white"/>
</clipPath>
</defs>
</svg>
